<svg width="17" height="17" viewBox="0 0 17 17" fill="none" xmlns="http://www.w3.org/2000/svg">
<path fill-rule="evenodd" clip-rule="evenodd" d="M5.19428 0.423585C6.03608 0.384832 6.30448 0.376221 8.44881 0.376221C10.5931 0.376221 10.8615 0.38555 11.7026 0.423585C12.5437 0.461621 13.1178 0.595821 13.6202 0.790303C14.1462 0.989091 14.6234 1.29983 15.0181 1.70171C15.42 2.0957 15.7301 2.57222 15.9281 3.09897C16.1233 3.60133 16.2568 4.17544 16.2956 5.01509C16.3343 5.85833 16.3429 6.12673 16.3429 8.27034C16.3429 10.4147 16.3336 10.6831 16.2956 11.5249C16.2575 12.3645 16.1233 12.9386 15.9281 13.441C15.73 13.9678 15.4195 14.4451 15.0181 14.8397C14.6234 15.2416 14.1462 15.5516 13.6202 15.7497C13.1178 15.9449 12.5437 16.0783 11.7041 16.1171C10.8615 16.1558 10.5931 16.1645 8.44881 16.1645C6.30448 16.1645 6.03608 16.1551 5.19428 16.1171C4.35463 16.0791 3.78051 15.9449 3.27816 15.7497C2.75135 15.5516 2.27404 15.241 1.87946 14.8397C1.47785 14.4455 1.16707 13.9684 0.96877 13.4417C0.774288 12.9394 0.640805 12.3652 0.602052 11.5256C0.563299 10.6824 0.554688 10.4139 0.554688 8.27034C0.554688 6.12601 0.564017 5.85761 0.602052 5.01653C0.640087 4.17544 0.774288 3.60133 0.96877 3.09897C1.16736 2.57228 1.47838 2.09521 1.88018 1.701C2.2742 1.29947 2.75103 0.988692 3.27744 0.790303C3.77979 0.595821 4.35391 0.462338 5.19356 0.423585H5.19428ZM11.6387 1.84453C10.8063 1.80649 10.5565 1.7986 8.44881 1.7986C6.34108 1.7986 6.09133 1.80649 5.25886 1.84453C4.48883 1.87969 4.07116 2.00815 3.79271 2.11651C3.42456 2.26004 3.16118 2.43013 2.88489 2.70642C2.62298 2.96122 2.42142 3.27141 2.29498 3.61424C2.18662 3.89269 2.05816 4.31036 2.02299 5.0804C1.98496 5.91287 1.97706 6.16261 1.97706 8.27034C1.97706 10.3781 1.98496 10.6278 2.02299 11.4603C2.05816 12.2303 2.18662 12.648 2.29498 12.9264C2.42129 13.2688 2.62295 13.5795 2.88489 13.8343C3.13965 14.0962 3.45039 14.2979 3.79271 14.4242C4.07116 14.5325 4.48883 14.661 5.25886 14.6962C6.09133 14.7342 6.34036 14.7421 8.44881 14.7421C10.5573 14.7421 10.8063 14.7342 11.6387 14.6962C12.4088 14.661 12.8265 14.5325 13.1049 14.4242C13.4731 14.2806 13.7364 14.1106 14.0127 13.8343C14.2747 13.5795 14.4763 13.2688 14.6026 12.9264C14.711 12.648 14.8395 12.2303 14.8746 11.4603C14.9127 10.6278 14.9205 10.3781 14.9205 8.27034C14.9205 6.16261 14.9127 5.91287 14.8746 5.0804C14.8395 4.31036 14.711 3.89269 14.6026 3.61424C14.4591 3.24609 14.289 2.98272 14.0127 2.70642C13.7579 2.44453 13.4477 2.24297 13.1049 2.11651C12.8265 2.00815 12.4088 1.87969 11.6387 1.84453ZM7.44051 10.7039C8.00362 10.9383 8.63064 10.9699 9.21448 10.7934C9.79833 10.6168 10.3028 10.2431 10.6417 9.73595C10.9805 9.22881 11.1328 8.61974 11.0726 8.01278C11.0123 7.40582 10.7431 6.83861 10.3111 6.40804C10.0357 6.13281 9.70269 5.92206 9.33606 5.79097C8.96943 5.65988 8.57829 5.61171 8.19081 5.64993C7.80333 5.68815 7.42914 5.81181 7.09518 6.012C6.76123 6.21219 6.47581 6.48393 6.25948 6.80767C6.04315 7.1314 5.90129 7.49908 5.84412 7.88422C5.78694 8.26936 5.81587 8.66238 5.92882 9.035C6.04177 9.40762 6.23593 9.75056 6.49732 10.0391C6.75872 10.3277 7.08084 10.5547 7.44051 10.7039ZM5.57965 5.40119C5.95643 5.0244 6.40374 4.72552 6.89603 4.52161C7.38832 4.3177 7.91595 4.21274 8.44881 4.21274C8.98166 4.21274 9.50929 4.3177 10.0016 4.52161C10.4939 4.72552 10.9412 5.0244 11.318 5.40119C11.6947 5.77797 11.9936 6.22527 12.1975 6.71756C12.4014 7.20985 12.5064 7.73749 12.5064 8.27034C12.5064 8.80319 12.4014 9.33082 12.1975 9.82311C11.9936 10.3154 11.6947 10.7627 11.318 11.1395C10.557 11.9004 9.52495 12.3279 8.44881 12.3279C7.37266 12.3279 6.3406 11.9004 5.57965 11.1395C4.81871 10.3785 4.39121 9.34648 4.39121 8.27034C4.39121 7.1942 4.81871 6.16213 5.57965 5.40119ZM13.4063 4.81702C13.4997 4.72894 13.5744 4.62303 13.6261 4.50554C13.6778 4.38806 13.7054 4.2614 13.7073 4.13305C13.7092 4.00471 13.6853 3.8773 13.637 3.75836C13.5888 3.63941 13.5171 3.53136 13.4264 3.4406C13.3356 3.34984 13.2276 3.27821 13.1086 3.22996C12.9897 3.1817 12.8623 3.1578 12.7339 3.15967C12.6056 3.16155 12.4789 3.18915 12.3614 3.24085C12.244 3.29255 12.138 3.3673 12.05 3.46067C11.8787 3.64225 11.7849 3.88345 11.7885 4.13305C11.7922 4.38266 11.8929 4.62102 12.0694 4.79753C12.246 4.97405 12.4843 5.07482 12.7339 5.07846C12.9835 5.0821 13.2247 4.98832 13.4063 4.81702Z" fill="white"/>
</svg>
