<svg width="17" height="14" viewBox="0 0 17 14" fill="none" xmlns="http://www.w3.org/2000/svg">
<path d="M16.3691 2.20167C15.7699 2.4672 15.1261 2.64661 14.4494 2.72771C15.1477 2.30989 15.6701 1.65229 15.9191 0.877614C15.2631 1.26729 14.5451 1.54158 13.7963 1.68855C13.2928 1.15094 12.6259 0.794601 11.8991 0.67486C11.1723 0.555119 10.4263 0.678676 9.77698 1.02635C9.12761 1.37402 8.61119 1.92636 8.30789 2.5976C8.0046 3.26885 7.9314 4.02145 8.09966 4.73855C6.77036 4.67181 5.46994 4.3263 4.28281 3.72445C3.09567 3.1226 2.04835 2.27786 1.20882 1.24505C0.92176 1.74023 0.756701 2.31434 0.756701 2.92578C0.756381 3.47621 0.891929 4.01821 1.15132 4.50369C1.41071 4.98917 1.78592 5.40312 2.24367 5.70881C1.71281 5.69192 1.19366 5.54848 0.72943 5.29043V5.33348C0.729377 6.10549 0.996419 6.85373 1.48524 7.45126C1.97407 8.04878 2.65457 8.45879 3.41128 8.6117C2.91882 8.74497 2.40251 8.76461 1.90135 8.66911C2.11485 9.33337 2.53072 9.91424 3.09075 10.3304C3.65078 10.7466 4.32694 10.9772 5.02455 10.99C3.84031 11.9196 2.37778 12.4239 0.872242 12.4217C0.605551 12.4218 0.339085 12.4062 0.0742188 12.375C1.60243 13.3576 3.38138 13.8791 5.19822 13.8771C11.3485 13.8771 14.7106 8.78321 14.7106 4.36538C14.7106 4.22185 14.707 4.07688 14.7006 3.93335C15.3546 3.46041 15.9191 2.87475 16.3677 2.20383L16.3691 2.20167Z" fill="white"/>
</svg>
