<svg width="196" height="50" viewBox="0 0 196 50" fill="none" xmlns="http://www.w3.org/2000/svg">
<rect width="50" height="50" rx="15" fill="#1444EF"/>
<path d="M25.4189 30.0746C22.1225 28.0875 22.2133 23.2771 25.5824 21.4158L42.2593 12.2028C45.6283 10.3416 49.7489 12.8254 49.6762 16.6737L49.3165 35.7229C49.2438 39.5712 45.0325 41.8977 41.7361 39.9107L25.4189 30.0746Z" fill="#00FFA3"/>
<path d="M87.34 23.54C87.34 24.66 87.07 25.71 86.53 26.69C86.01 27.67 85.18 28.46 84.04 29.06C82.92 29.66 81.5 29.96 79.78 29.96H76.27V38H72.07V17.06H79.78C81.4 17.06 82.78 17.34 83.92 17.9C85.06 18.46 85.91 19.23 86.47 20.21C87.05 21.19 87.34 22.3 87.34 23.54ZM79.6 26.57C80.76 26.57 81.62 26.31 82.18 25.79C82.74 25.25 83.02 24.5 83.02 23.54C83.02 21.5 81.88 20.48 79.6 20.48H76.27V26.57H79.6ZM89.242 29.63C89.242 27.95 89.572 26.46 90.232 25.16C90.912 23.86 91.822 22.86 92.962 22.16C94.122 21.46 95.412 21.11 96.832 21.11C98.072 21.11 99.152 21.36 100.072 21.86C101.012 22.36 101.762 22.99 102.322 23.75V21.38H106.552V38H102.322V35.57C101.782 36.35 101.032 37 100.072 37.52C99.132 38.02 98.042 38.27 96.802 38.27C95.402 38.27 94.122 37.91 92.962 37.19C91.822 36.47 90.912 35.46 90.232 34.16C89.572 32.84 89.242 31.33 89.242 29.63ZM102.322 29.69C102.322 28.67 102.122 27.8 101.722 27.08C101.322 26.34 100.782 25.78 100.102 25.4C99.422 25 98.692 24.8 97.912 24.8C97.132 24.8 96.412 24.99 95.752 25.37C95.092 25.75 94.552 26.31 94.132 27.05C93.732 27.77 93.532 28.63 93.532 29.63C93.532 30.63 93.732 31.51 94.132 32.27C94.552 33.01 95.092 33.58 95.752 33.98C96.432 34.38 97.152 34.58 97.912 34.58C98.692 34.58 99.422 34.39 100.102 34.01C100.782 33.61 101.322 33.05 101.722 32.33C102.122 31.59 102.322 30.71 102.322 29.69ZM112.784 19.4C112.044 19.4 111.424 19.17 110.924 18.71C110.444 18.23 110.204 17.64 110.204 16.94C110.204 16.24 110.444 15.66 110.924 15.2C111.424 14.72 112.044 14.48 112.784 14.48C113.524 14.48 114.134 14.72 114.614 15.2C115.114 15.66 115.364 16.24 115.364 16.94C115.364 17.64 115.114 18.23 114.614 18.71C114.134 19.17 113.524 19.4 112.784 19.4ZM114.854 21.38V38H110.654V21.38H114.854ZM117.924 29.63C117.924 27.95 118.254 26.46 118.914 25.16C119.594 23.86 120.514 22.86 121.674 22.16C122.834 21.46 124.124 21.11 125.544 21.11C126.624 21.11 127.654 21.35 128.634 21.83C129.614 22.29 130.394 22.91 130.974 23.69V15.8H135.234V38H130.974V35.54C130.454 36.36 129.724 37.02 128.784 37.52C127.844 38.02 126.754 38.27 125.514 38.27C124.114 38.27 122.834 37.91 121.674 37.19C120.514 36.47 119.594 35.46 118.914 34.16C118.254 32.84 117.924 31.33 117.924 29.63ZM131.004 29.69C131.004 28.67 130.804 27.8 130.404 27.08C130.004 26.34 129.464 25.78 128.784 25.4C128.104 25 127.374 24.8 126.594 24.8C125.814 24.8 125.094 24.99 124.434 25.37C123.774 25.75 123.234 26.31 122.814 27.05C122.414 27.77 122.214 28.63 122.214 29.63C122.214 30.63 122.414 31.51 122.814 32.27C123.234 33.01 123.774 33.58 124.434 33.98C125.114 34.38 125.834 34.58 126.594 34.58C127.374 34.58 128.104 34.39 128.784 34.01C129.464 33.61 130.004 33.05 130.404 32.33C130.804 31.59 131.004 30.71 131.004 29.69ZM141.466 19.4C140.726 19.4 140.106 19.17 139.606 18.71C139.126 18.23 138.886 17.64 138.886 16.94C138.886 16.24 139.126 15.66 139.606 15.2C140.106 14.72 140.726 14.48 141.466 14.48C142.206 14.48 142.816 14.72 143.296 15.2C143.796 15.66 144.046 16.24 144.046 16.94C144.046 17.64 143.796 18.23 143.296 18.71C142.816 19.17 142.206 19.4 141.466 19.4ZM143.536 21.38V38H139.336V21.38H143.536ZM156.895 21.14C158.875 21.14 160.475 21.77 161.695 23.03C162.915 24.27 163.525 26.01 163.525 28.25V38H159.325V28.82C159.325 27.5 158.995 26.49 158.335 25.79C157.675 25.07 156.775 24.71 155.635 24.71C154.475 24.71 153.555 25.07 152.875 25.79C152.215 26.49 151.885 27.5 151.885 28.82V38H147.685V21.38H151.885V23.45C152.445 22.73 153.155 22.17 154.015 21.77C154.895 21.35 155.855 21.14 156.895 21.14ZM169.379 38.21C168.619 38.21 167.989 37.98 167.489 37.52C167.009 37.04 166.769 36.45 166.769 35.75C166.769 35.05 167.009 34.47 167.489 34.01C167.989 33.53 168.619 33.29 169.379 33.29C170.119 33.29 170.729 33.53 171.209 34.01C171.689 34.47 171.929 35.05 171.929 35.75C171.929 36.45 171.689 37.04 171.209 37.52C170.729 37.98 170.119 38.21 169.379 38.21Z" fill="black"/>
</svg>
