<svg width="87" height="87" viewBox="0 0 87 87" fill="none" xmlns="http://www.w3.org/2000/svg">
<rect width="87" height="87" rx="20" fill="#E6EAFF"/>
<path d="M43.5 22.875V64.125" stroke="#607FFF" stroke-width="2" stroke-linecap="round" stroke-linejoin="round"/>
<path d="M52.875 30.375H38.8125C37.072 30.375 35.4028 31.0664 34.1721 32.2971C32.9414 33.5278 32.25 35.197 32.25 36.9375C32.25 38.678 32.9414 40.3472 34.1721 41.5779C35.4028 42.8086 37.072 43.5 38.8125 43.5H48.1875C49.928 43.5 51.5972 44.1914 52.8279 45.4221C54.0586 46.6528 54.75 48.322 54.75 50.0625C54.75 51.803 54.0586 53.4722 52.8279 54.7029C51.5972 55.9336 49.928 56.625 48.1875 56.625H32.25" stroke="#607FFF" stroke-width="2" stroke-linecap="round" stroke-linejoin="round"/>
</svg>
